<svg xmlns="http://www.w3.org/2000/svg" viewBox="0 0 282.85 110.11"><defs><style>.cls-1{fill:#224a6d;}.cls-2{fill:#f58ea6;}.cls-3{fill:#a0aec0;}</style></defs><g id="Layer_2" data-name="Layer 2"><g id="Layer_2-2" data-name="Layer 2"><path class="cls-1" d="M14,38.8a12.52,12.52,0,0,1,7.93,2.51,3,3,0,0,1,1.18,2.24,2.86,2.86,0,0,1-2.84,2.84,2.6,2.6,0,0,1-1.65-.52,6.43,6.43,0,0,0-4-1.26c-5,0-7.86,4.82-7.86,10.9s2.84,11,7.86,11a6.48,6.48,0,0,0,4-1.32,2.56,2.56,0,0,1,1.59-.53,2.86,2.86,0,0,1,2.84,2.84,3,3,0,0,1-1.12,2.31A12.52,12.52,0,0,1,14,72.29c-8.53,0-14-7.13-14-16.78S5.48,38.8,14,38.8Z"/><path class="cls-1" d="M41.74,68.53V49.63c0-3.7-1.79-5-4.63-5S31.89,46.79,30.64,49V68.53a3.31,3.31,0,1,1-6.61,0V30.34a3.31,3.31,0,0,1,6.61,0V43.88A11.86,11.86,0,0,1,40,38.8c5.69,0,8.33,3,8.33,8.59V68.53a3.27,3.27,0,1,1-6.54,0Z"/><path class="cls-1" d="M62.86,38.8c8.66,0,13.28,7.33,13.28,15.59,0,2-1.39,3.3-3.9,3.3H55.86c.26,5.22,3.17,9.19,8.32,9.19a9.72,9.72,0,0,0,5.69-2,2.33,2.33,0,0,1,1.52-.52A2.54,2.54,0,0,1,73,68.86a14.69,14.69,0,0,1-9.52,3.43c-8.78,0-14.33-6.87-14.33-16.78C49.19,46.26,54.34,38.8,62.86,38.8ZM55.79,53H69.73c-.06-4-1.85-8.85-6.93-8.85S56,49.17,55.79,53Z"/><path class="cls-1" d="M90.72,38.8c8.66,0,13.28,7.33,13.28,15.59,0,2-1.38,3.3-3.89,3.3H83.72c.27,5.22,3.17,9.19,8.33,9.19a9.69,9.69,0,0,0,5.68-2,2.33,2.33,0,0,1,1.52-.52,2.54,2.54,0,0,1,1.65,4.49,14.68,14.68,0,0,1-9.51,3.43c-8.79,0-14.34-6.87-14.34-16.78C77.05,46.26,82.2,38.8,90.72,38.8ZM83.66,53H97.6c-.07-4-1.85-8.85-6.94-8.85S83.85,49.17,83.66,53Z"/><path class="cls-1" d="M104.91,67.08a2.7,2.7,0,0,1,2.71-2.78,3.07,3.07,0,0,1,1.59.46,12,12,0,0,0,6.73,2.32c3.31,0,5.29-1.52,5.29-4,0-2.64-2.77-3.83-6-5-4.49-1.59-9.78-3.5-9.78-10.18,0-4.95,4-9.11,11-9.11a15.19,15.19,0,0,1,8.92,2.71,2.61,2.61,0,0,1-1.46,4.75,2.74,2.74,0,0,1-1.45-.46A11,11,0,0,0,116.54,44c-3,0-4.89,1.45-4.89,3.5,0,2.38,2.64,3.5,5.81,4.62,4.56,1.65,10.05,3.64,10.05,10.64,0,5.48-4.43,9.51-11.43,9.51a16.8,16.8,0,0,1-10-3A2.87,2.87,0,0,1,104.91,67.08Z"/><path class="cls-1" d="M142.09,38.8c8.66,0,13.28,7.33,13.28,15.59,0,2-1.39,3.3-3.9,3.3H135.09c.26,5.22,3.17,9.19,8.32,9.19a9.67,9.67,0,0,0,5.68-2,2.37,2.37,0,0,1,1.52-.52,2.53,2.53,0,0,1,2.58,2.57,2.57,2.57,0,0,1-.92,1.92,14.69,14.69,0,0,1-9.52,3.43c-8.79,0-14.34-6.87-14.34-16.78C128.41,46.26,133.57,38.8,142.09,38.8ZM135,53H149c-.06-4-1.85-8.85-6.94-8.85S135.22,49.17,135,53Z"/><path class="cls-2" d="M187.59,56.37c0,10.5-6,16.72-14.14,16.72a12.85,12.85,0,0,1-10.24-5.16v1.26a3.47,3.47,0,1,1-6.93,0V31.33a3.47,3.47,0,1,1,6.93,0V44.81a12.62,12.62,0,0,1,10.24-5.22C181.65,39.59,187.59,46.06,187.59,56.37Zm-7.13,0c0-6.21-3.5-10.64-9.05-10.64a10.45,10.45,0,0,0-8.2,4.36V62.71a10.31,10.31,0,0,0,8.2,4.23C177,66.94,180.46,62.58,180.46,56.37Z"/><path class="cls-2" d="M188.5,69.19V43.49a3.47,3.47,0,1,1,6.94,0v25.7a3.47,3.47,0,1,1-6.94,0Z"/><path class="cls-2" d="M216.63,69.65a2.66,2.66,0,0,1-1.85,2.64,11.84,11.84,0,0,1-4.56.8c-5.35,0-8.19-2.91-8.19-8.2V46.46h-2.65a3,3,0,1,1,0-6.08H202V34.77a3.47,3.47,0,1,1,6.93,0v5.61h3.84a3,3,0,0,1,0,6.08H209V63.17c0,2.19,1.06,3.77,3,3.77.8,0,1.19-.2,1.72-.2A2.78,2.78,0,0,1,216.63,69.65Z"/><path class="cls-3" d="M273.49,64.68c-2.44,2.74-6.44,5.13-10.43,5.13-5.72,0-9-2.51-9-9.3V40.3h1.78V60.51c0,6,3,7.69,7.46,7.69A13.47,13.47,0,0,0,273.49,63V40.3h1.79V69.09h-1.79Z"/><path class="cls-3" d="M281.06,40.66h1.79V69.45h-1.79Z"/><rect class="cls-3" x="233.52" width="1.1" height="110.11"/></g></g></svg>